{"title":"The Preppie Connection 2015 Movies HDRip XviD New +Sample ☻rDX☻","uid":13913463,"size":739663517,"categoryP":"video","categoryS":"movies","magnet":"?xt=urn:btih:442a119d15feee000fb7bd287a9a42bdd919d28e&amp;dn=The+Preppie+Connection+2015+Movies+HDRip+XviD+New+%2BSample+%E2%98%BBrDX%E2%98%BB&amp;tr=udp%3A%2F%2Ftracker.leechers-paradise.org%3A6969&amp;tr=udp%3A%2F%2Fzer0day.ch%3A1337&amp;tr=udp%3A%2F%2Fopen.demonii.com%3A1337&amp;tr=udp%3A%2F%2Ftracker.coppersurfer.tk%3A6969&amp;tr=udp%3A%2F%2Fexodus.desync.com%3A6969","seeders":0,"leechers":1,"uploader":"basicssom","files":2,"time":1458326477,"description":"----------------------------------------------------------------\r\nThe Preppie Connection 2015 English Movies HDRip XviD AAC New Source with Sample ~ ☻rDX☻\r\n\r\nSCREEN SHOTS &amp; POSTER:\r\n  \nhttp://mobileshosting.com/2016/3/car/index.htm  \nhttp://mobileshosting.com/2016/3/car/1.html  \nhttp://mobileshosting.com/2016/3/car/2.html  \nhttp://mobileshosting.com/2016/3/car/3.html  \nhttp://mobileshosting.com/2016/3/car/4.html  \nhttp://mobileshosting.com/2016/3/car/5.html  \nhttp://mobileshosting.com/2016/3/car/6.html  \nhttp://mobileshosting.com/2016/3/car/7.html  \nhttp://mobileshosting.com/2016/3/car/8.html  \nhttp://mobileshosting.com/2016/3/car/9.html  \nhttp://mobileshosting.com/2016/3/car/10.html\r\n\r\nFormat                                   : Matroska\r\nFormat version                           : Version 4 / Version 2\r\nFile size                                : 693 MiB\r\nDuration                                 : 1h 36mn\r\nOverall bit rate                         : 1 000 Kbps\r\nMovie name                               : The Preppie Connection 2015 English Movies HDRip XviD AAC New Source ☻rDX☻\r\n\r\nVideo\r\nID                                       : 1\r\nFormat                                   : MPEG-4 Visual\r\nFormat profile                           : Advanced   \r\nFormat settings, BVOP                    : Yes\r\nFormat settings, QPel                    : No\r\nFormat settings, GMC                     : No warppoints\r\nFormat settings, Matrix                  : Default (H.263)\r\nCodec ID                                 : V_MS/VFW/FOURCC / XVID\r\nCodec ID/Hint                            : XviD\r\nDuration                                 : 1h 36mn\r\nBit rate                                 : 853 Kbps\r\nWidth                                    : 640 pixels\r\nHeight                                   : 272 pixels\r\nDisplay aspect ratio                     : 2.35:1\r\nFrame rate mode                          : Constant\r\nFrame rate                               : 23.976 fps\r\nColor space                              : YUV\r\nChroma subsampling                       : 4:2:0\r\nBit depth                                : 8 bits\r\nScan type                                : Progressive\r\nCompression mode                         : Lossy\r\nBits/(Pixel*Frame)                       : 0.204\r\nStream size                              : 591 MiB (85%)\r\nTitle                                    : ☻rDX☻\r\nWriting library                          : XviD 65\r\nDefault                                  : Yes\r\nForced                                   : No\r\n\r\nAudio\r\nID                                       : 2\r\nFormat                                   : MPEG Audio\r\nFormat version                           : Version 1\r\nFormat profile                           : Layer 3\r\nMode                                     : Joint stereo\r\nMode extension                           : MS Stereo\r\nCodec ID                                 : A_MPEG/L3\r\nCodec ID/Hint                            : MP3\r\nDuration                                 : 1h 36mn\r\nBit rate mode                            : Constant\r\nBit rate                                 : 128 Kbps\r\nChannel(s)                               : 2 channels\r\nSampling rate                            : 48.0 KHz\r\nCompression mode                         : Lossy\r\nStream size                              : 88.7 MiB (13%)\r\nTitle                                    : ☻rDX☻\r\nWriting library                          : LAME3.99r\r\nEncoding settings                        : -m j -V 4 -q 3 -lowpass 17 -b 128\r\nDefault                                  : Yes\r\nForced                                   : No\r\n\r\nIMDB \nhttp://www.imdb.com/title/tt2654572/","torrent":{"xt":"urn:btih:442a119d15feee000fb7bd287a9a42bdd919d28e","amp;dn":"The+Preppie+Connection+2015+Movies+HDRip+XviD+New+%2BSample+%E2%98%BBrDX%E2%98%BB","amp;tr":["udp%3A%2F%2Ftracker.leechers-paradise.org%3A6969","udp%3A%2F%2Fzer0day.ch%3A1337","udp%3A%2F%2Fopen.demonii.com%3A1337","udp%3A%2F%2Ftracker.coppersurfer.tk%3A6969","udp%3A%2F%2Fexodus.desync.com%3A6969"],"infoHash":"442a119d15feee000fb7bd287a9a42bdd919d28e","infoHashBuffer":{"type":"Buffer","data":[68,42,17,157,21,254,238,0,15,183,189,40,122,154,66,189,217,25,210,142]},"announce":[],"urlList":[]}}